<svg width="163" height="236" viewBox="0 0 163 236" fill="none" xmlns="http://www.w3.org/2000/svg">
<rect x="1.5" y="1.5" width="160" height="198" rx="12.5" fill="url(#paint0_linear_0_1)" stroke="black" stroke-width="3"/>
<mask id="path-2-outside-1_0_1" maskUnits="userSpaceOnUse" x="23" y="25" width="115" height="150" fill="black">
<rect fill="white" x="23" y="25" width="115" height="150"/>
<path d="M26.4391 149L73.9391 27.6H100.039L60.5391 123.7L57.4391 129.2H135.639L135.539 149H26.4391ZM95.4391 173L95.5391 136.6L102.939 129.2C100.472 129.2 98.7057 128.3 97.6391 126.5C96.6391 124.7 96.0391 122.5 95.8391 119.9C95.6391 117.3 95.5391 114.8 95.5391 112.4L95.4391 85.1L118.339 84.6V173H95.4391Z"/>
</mask>
<path d="M26.4391 149L73.9391 27.6H100.039L60.5391 123.7L57.4391 129.2H135.639L135.539 149H26.4391ZM95.4391 173L95.5391 136.6L102.939 129.2C100.472 129.2 98.7057 128.3 97.6391 126.5C96.6391 124.7 96.0391 122.5 95.8391 119.9C95.6391 117.3 95.5391 114.8 95.5391 112.4L95.4391 85.1L118.339 84.6V173H95.4391Z" fill="#FF0D00"/>
<path d="M26.4391 149L24.5766 148.271L23.5089 151H26.4391V149ZM73.9391 27.6V25.6H72.574L72.0766 26.8712L73.9391 27.6ZM100.039 27.6L101.889 28.3603L103.023 25.6H100.039V27.6ZM60.5391 123.7L62.2814 124.682L62.342 124.574L62.3889 124.46L60.5391 123.7ZM57.4391 129.2L55.6968 128.218L54.016 131.2H57.4391V129.2ZM135.639 129.2L137.639 129.21L137.649 127.2H135.639V129.2ZM135.539 149V151H137.529L137.539 149.01L135.539 149ZM95.4391 173L93.4391 172.995L93.4336 175H95.4391V173ZM95.5391 136.6L94.1248 135.186L93.5413 135.769L93.5391 136.594L95.5391 136.6ZM102.939 129.2L104.353 130.614L107.767 127.2H102.939V129.2ZM97.6391 126.5L95.8908 127.471L95.9043 127.496L95.9185 127.52L97.6391 126.5ZM95.8391 119.9L93.845 120.053V120.053L95.8391 119.9ZM95.5391 112.4H97.5391L97.539 112.393L95.5391 112.4ZM95.4391 85.1L95.3954 83.1005L93.4319 83.1433L93.4391 85.1073L95.4391 85.1ZM118.339 84.6H120.339V82.5558L118.295 82.6005L118.339 84.6ZM118.339 173V175H120.339V173H118.339ZM26.4391 149L28.3016 149.729L75.8016 28.3287L73.9391 27.6L72.0766 26.8712L24.5766 148.271L26.4391 149ZM73.9391 27.6V29.6H100.039V27.6V25.6H73.9391V27.6ZM100.039 27.6L98.1892 26.8396L58.6892 122.94L60.5391 123.7L62.3889 124.46L101.889 28.3603L100.039 27.6ZM60.5391 123.7L58.7968 122.718L55.6968 128.218L57.4391 129.2L59.1814 130.182L62.2814 124.682L60.5391 123.7ZM57.4391 129.2V131.2H135.639V129.2V127.2H57.4391V129.2ZM135.639 129.2L133.639 129.19L133.539 148.99L135.539 149L137.539 149.01L137.639 129.21L135.639 129.2ZM135.539 149V147H26.4391V149V151H135.539V149ZM95.4391 173L97.4391 173.005L97.5391 136.605L95.5391 136.6L93.5391 136.594L93.4391 172.995L95.4391 173ZM95.5391 136.6L96.9533 138.014L104.353 130.614L102.939 129.2L101.525 127.786L94.1248 135.186L95.5391 136.6ZM102.939 129.2V127.2C101.029 127.2 99.996 126.554 99.3596 125.48L97.6391 126.5L95.9185 127.52C97.4154 130.046 99.9153 131.2 102.939 131.2V129.2ZM97.6391 126.5L99.3874 125.529C98.5593 124.038 98.0168 122.133 97.8332 119.747L95.8391 119.9L93.845 120.053C94.0614 122.867 94.7188 125.362 95.8908 127.471L97.6391 126.5ZM95.8391 119.9L97.8332 119.747C97.6368 117.193 97.5391 114.745 97.5391 112.4H95.5391H93.5391C93.5391 114.855 93.6414 117.407 93.845 120.053L95.8391 119.9ZM95.5391 112.4L97.539 112.393L97.439 85.0927L95.4391 85.1L93.4391 85.1073L93.5391 112.407L95.5391 112.4ZM95.4391 85.1L95.4827 87.0995L118.383 86.5995L118.339 84.6L118.295 82.6005L95.3954 83.1005L95.4391 85.1ZM118.339 84.6H116.339V173H118.339H120.339V84.6H118.339ZM118.339 173V171H95.4391V173V175H118.339V173Z" fill="white" mask="url(#path-2-outside-1_0_1)"/>
<path d="M20.0469 235.38C18.5402 235.38 17.1735 235.16 15.9469 234.72C14.7202 234.28 13.6669 233.68 12.7869 232.92C11.9202 232.147 11.2535 231.26 10.7869 230.26C10.3202 229.247 10.0869 228.173 10.0869 227.04C10.0869 225.28 10.4335 223.887 11.1269 222.86C11.8202 221.833 12.6735 221.1 13.6869 220.66C14.7002 220.207 15.6735 219.973 16.6069 219.96L20.1869 218.94C21.0535 218.473 21.6802 217.88 22.0669 217.16C22.4669 216.44 22.7135 215.713 22.8069 214.98C22.9135 214.233 22.9669 213.613 22.9669 213.12C22.9669 212.6 22.8869 212.133 22.7269 211.72C22.5669 211.293 22.3069 210.953 21.9469 210.7C21.5869 210.447 21.1002 210.32 20.4869 210.32C19.9269 210.32 19.4469 210.453 19.0469 210.72C18.6469 210.987 18.3402 211.333 18.1269 211.76C17.9269 212.187 17.8269 212.64 17.8269 213.12C17.8269 214.147 18.1202 215.127 18.7069 216.06C19.3069 216.993 19.9469 217.9 20.6269 218.78L20.8469 219.16L26.8669 227.16L28.3069 229.02L32.8869 235H26.9469L25.2469 232.62L23.7469 230.5L16.4869 220.62L16.2869 220.28C15.7535 219.6 15.2135 218.907 14.6669 218.2C14.1335 217.493 13.6869 216.687 13.3269 215.78C12.9669 214.873 12.7869 213.787 12.7869 212.52C12.7869 211.133 13.1069 209.907 13.7469 208.84C14.4002 207.773 15.3202 206.94 16.5069 206.34C17.6935 205.727 19.1002 205.42 20.7269 205.42C22.0069 205.42 23.2002 205.727 24.3069 206.34C25.4135 206.94 26.3002 207.767 26.9669 208.82C27.6469 209.873 27.9869 211.073 27.9869 212.42C27.9869 213.713 27.6935 214.833 27.1069 215.78C26.5202 216.727 25.6669 217.5 24.5469 218.1C23.4269 218.7 22.0535 219.127 20.4269 219.38L16.8669 220.42C16.3869 220.66 16.0135 221.02 15.7469 221.5C15.4935 221.98 15.3135 222.547 15.2069 223.2C15.1002 223.853 15.0469 224.573 15.0469 225.36C15.0469 226.213 15.2735 227.027 15.7269 227.8C16.1935 228.56 16.8402 229.18 17.6669 229.66C18.4935 230.127 19.4535 230.36 20.5469 230.36C21.2002 230.36 21.7602 230.293 22.2269 230.16C22.7069 230.013 23.1269 229.827 23.4869 229.6C23.8602 229.373 24.2002 229.127 24.5069 228.86L26.3069 226.88C26.5469 226.453 26.7269 225.927 26.8469 225.3C26.9802 224.66 27.0669 223.973 27.1069 223.24C27.1602 222.493 27.1869 221.753 27.1869 221.02L32.1869 221C32.1869 222.293 32.0402 223.58 31.7469 224.86C31.4669 226.14 31.0802 227.287 30.5869 228.3C30.1069 229.313 29.5669 230.08 28.9669 230.6L27.1269 232.14C26.4469 233.26 25.4735 234.08 24.2069 234.6C22.9402 235.12 21.5535 235.38 20.0469 235.38ZM34.8313 235V205.92H42.7913L48.1713 222L50.3513 229.28H50.4713L49.3113 219.22V205.92H55.2313V235H47.1913L41.8513 218.92L39.7713 212.18H39.5913L40.7513 222.02V235H34.8313ZM65.3356 235L63.5956 229.3H66.5356C68.1223 229.3 69.429 229.007 70.4556 228.42C71.4956 227.833 72.269 226.873 72.7756 225.54C73.2956 224.207 73.5556 222.427 73.5556 220.2C73.5556 218 73.3223 216.28 72.8556 215.04C72.389 213.8 71.609 212.927 70.5156 212.42C69.4356 211.913 67.969 211.66 66.1156 211.66H63.4756L65.3356 205.92H66.9556C71.2756 205.92 74.5356 207.107 76.7356 209.48C78.949 211.84 80.0556 215.387 80.0556 220.12C80.0556 223.307 79.5423 226.007 78.5156 228.22C77.5023 230.433 76.0156 232.12 74.0556 233.28C72.109 234.427 69.7356 235 66.9356 235H65.3356ZM59.0356 235V205.92H65.3356V235H59.0356Z" fill="white"/>
<path d="M93 235.6C90.6267 235.6 88.64 235 87.04 233.8C85.4533 232.6 84.26 230.867 83.46 228.6C82.66 226.32 82.26 223.553 82.26 220.3C82.26 215.527 83.16 211.84 84.96 209.24C86.7733 206.64 89.4533 205.34 93 205.34C96.5467 205.34 99.22 206.64 101.02 209.24C102.833 211.84 103.74 215.527 103.74 220.3C103.74 223.553 103.34 226.32 102.54 228.6C101.74 230.867 100.54 232.6 98.94 233.8C97.3533 235 95.3733 235.6 93 235.6ZM93 229.76C94.4267 229.76 95.5 229 96.22 227.48C96.94 225.947 97.3 223.553 97.3 220.3C97.3 217.113 96.94 214.8 96.22 213.36C95.5 211.907 94.4267 211.18 93 211.18C91.5867 211.18 90.5133 211.907 89.78 213.36C89.06 214.8 88.7 217.113 88.7 220.3C88.7 223.553 89.06 225.947 89.78 227.48C90.5133 229 91.5867 229.76 93 229.76ZM106.784 235V205.92H114.744L120.124 222L122.304 229.28H122.424L121.264 219.22V205.92H127.184V235H119.144L113.804 218.92L111.724 212.18H111.544L112.704 222.02V235H106.784ZM131.769 235V205.92H150.309V211.48H135.949L137.929 210V218.64L135.949 217.38H148.949V222.66H136.209L137.929 221.42V230.78L135.949 229.28H150.949V235H131.769Z" fill="#FF0D00"/>
<path d="M98.0387 77V65.996C98.0387 65.618 98.1192 65.317 98.2802 65.093C98.4482 64.869 98.7142 64.7325 99.0782 64.6835H94.1852V61.733H105.231V64.6835H101.388V77H98.0387ZM114.369 77V61.733H117.676V77H114.369ZM106.924 77V61.733H110.232V77H106.924ZM109.266 70.616V67.6655H114.915V70.616H109.266Z" fill="white"/>
<defs>
<linearGradient id="paint0_linear_0_1" x1="-37.5" y1="71" x2="154" y2="227.5" gradientUnits="userSpaceOnUse">
<stop offset="0.447115"/>
<stop offset="0.447215" stop-color="#0C0C0C"/>
</linearGradient>
</defs>
</svg>
